<?xml version="1.0" encoding="UTF-8" standalone="no"?>
<svg width="210px" height="305px" viewBox="0 0 210 305" version="1.1" xmlns="http://www.w3.org/2000/svg" xmlns:xlink="http://www.w3.org/1999/xlink" xmlns:sketch="http://www.bohemiancoding.com/sketch/ns">
    <!-- Generator: Sketch 3.4.4 (17249) - http://www.bohemiancoding.com/sketch -->
    <title>Logo SVG</title>
    <desc>Created with Sketch.</desc>
    <defs>
        <path id="path-1" d="M0,305 L209.966923,305 L209.966923,0.2844125 L0,0.2844125"></path>
    </defs>
    <g id="Page-1" stroke="none" stroke-width="1" fill="none" fill-rule="evenodd" sketch:type="MSPage">
        <g id="Logo-SVG" sketch:type="MSArtboardGroup">
            <g id="Page-1" sketch:type="MSLayerGroup">
                <g id="Group-3">
                    <mask id="mask-2" sketch:name="Clip 2" fill="white">
                        <use xlink:href="#path-1"></use>
                    </mask>
                    <g id="Clip-2"></g>
                    <path d="M0.0217692308,122.944204 L0.000230769231,122.944204 L0.000230769231,305.000229 L23.9525385,305.000229 L23.9525385,189.078116 L23.9525385,189.078116 L23.9525385,122.944204 L23.9525385,122.944204 L23.9525385,189.078116 C43.2040769,212.230666 72.3563846,226.991141 104.994077,226.997241 C162.974077,226.988854 209.957923,180.414591 209.966385,122.942679 C209.941769,73.8247162 175.662538,32.6802162 129.456385,21.7429162 L126.709462,45.5519787 C160.880231,54.9528412 186.038692,86.0483537 186.014077,122.942679 C185.932538,167.292729 149.735615,203.172929 104.994077,203.253754 C60.2533077,203.172929 24.0556154,167.292729 23.9748462,122.942679 C23.9502308,86.0552162 49.1002308,54.9780038 83.2594615,45.5679913 L80.511,21.7444412 C34.3125385,32.6886037 0.0463846154,73.8315788 0.0217692308,122.942679 L0.0217692308,122.944204 L0.0217692308,122.944204" id="Fill-1" fill="#221F20" sketch:type="MSShapeGroup" mask="url(#mask-2)"></path>
                </g>
                <path d="M95.8272308,84.5333425 C96.4241538,89.86093 100.007231,93.214405 104.983385,93.214405 C109.959538,93.214405 113.542615,89.86093 114.139538,84.5333425 L122.698769,10.3466675 C123.295692,4.6248675 120.111077,0.2847175 114.736462,0.2847175 L95.2303077,0.2847175 C89.8556923,0.2847175 86.6710769,4.6248675 87.268,10.3466675 L95.8272308,84.5333425 Z M87.6664615,123.007568 L87.6664615,123.402543 C87.6664615,132.872793 95.0310769,140.172967 104.983385,140.172967 C114.935692,140.172967 122.300308,132.872793 122.300308,123.402543 L122.300308,123.007568 C122.300308,113.537318 114.935692,106.237143 104.983385,106.237143 C95.0310769,106.237143 87.6664615,113.537318 87.6664615,123.007568 L87.6664615,123.007568 Z" id="Fill-4" fill="#221F20" sketch:type="MSShapeGroup"></path>
            </g>
        </g>
    </g>
</svg>